<svg width="48" height="48" viewBox="0 0 48 48" fill="none" xmlns="http://www.w3.org/2000/svg">
<g clip-path="url(#clip0_2001_7)">
<path d="M42 36V38C42 40.2 40.2 42 38 42H10C7.78 42 6 40.2 6 38V10C6 7.8 7.78 6 10 6H38C40.2 6 42 7.8 42 10V12H24C21.78 12 20 13.8 20 16V32C20 34.2 21.78 36 24 36H42ZM24 32H44V16H24V32ZM32 27C30.34 27 29 25.66 29 24C29 22.34 30.34 21 32 21C33.66 21 35 22.34 35 24C35 25.66 33.66 27 32 27Z" fill="#FFD600"/>
</g>
<defs>
<clipPath id="clip0_2001_7">
<rect width="48" height="48" fill="white"/>
</clipPath>
</defs>
</svg>
